<?xml version="1.0" standalone="no"?><!DOCTYPE svg PUBLIC "-//W3C//DTD SVG 1.1//EN" "http://www.w3.org/Graphics/SVG/1.1/DTD/svg11.dtd"><svg t="1724311654554" class="icon" viewBox="0 0 1024 1024" version="1.1" xmlns="http://www.w3.org/2000/svg" p-id="16240" xmlns:xlink="http://www.w3.org/1999/xlink" width="200" height="200"><path d="M927.64 962.56h-40.66c-30.66 0-55.7-25.87-55.7-57.81V517.72c0-213.36-143.21-387.03-319.28-387.03-176.07 0-319.29 173.67-319.29 387.03v387.03c0 31.82-24.92 57.81-55.7 57.81H96.36C43.18 962.56 0 917.74 0 862.55V590.79c0-55.19 43.18-100.01 96.36-100.01h30.2C138.39 251.68 306.76 61.44 512 61.44s373.6 190.24 385.44 429.34h30.2c53.17 0 96.36 44.81 96.36 100.01v271.76c0 55.19-43.19 100.01-96.36 100.01z m-29.51-69.38h29.63c16.31 0 29.63-13.82 29.63-30.75V590.67c0-16.92-13.32-30.75-29.63-30.75h-29.63v333.26zM96.36 560.04c-16.31 0-29.63 13.83-29.63 30.75v271.76c0 16.92 13.33 30.75 29.63 30.75h29.63V560.04H96.36z m0 0" fill="#1296db" p-id="16241"></path><path d="M581.25 823.94h-1.95c-12.18-0.72-22.97-8.23-28.25-19.67l-83.5-181.17-66.04 86.06c-6.32 8.22-15.97 13.11-26.07 13.11H256c-18.49 0-33.42-15.49-33.42-34.69 0-19.19 14.93-34.68 33.42-34.68h103.25l89.24-116.34c7.12-9.29 18.5-14.3 29.86-12.87 11.37 1.32 21.36 8.7 26.3 19.43l80.39 174.26 29.17-48.39c6.08-10.13 16.77-16.22 28.25-16.22h125.41c18.5 0 33.42 15.5 33.42 34.69 0 19.19-14.93 34.69-33.42 34.69H660.96l-51.56 85.46c-5.98 10.25-16.77 16.33-28.15 16.33z m0 0" fill="#1296db" p-id="16242"></path></svg>