<?xml version="1.0" standalone="no"?><!DOCTYPE svg PUBLIC "-//W3C//DTD SVG 1.1//EN" "http://www.w3.org/Graphics/SVG/1.1/DTD/svg11.dtd"><svg t="1728982330015" class="icon" viewBox="0 0 1024 1024" version="1.1" xmlns="http://www.w3.org/2000/svg" p-id="5155" xmlns:xlink="http://www.w3.org/1999/xlink" width="200" height="200"><path d="M891.72 962H132.28C93.47 962 62 930.53 62 891.72V132.28C62 93.47 93.47 62 132.28 62h210.65c30.24 0 59.84 8.76 85.22 25.22l115.08 74.64a142.035 142.035 0 0 0 77.3 22.87h271.19c38.81 0 70.28 31.47 70.28 70.28v636.71c0 38.81-31.47 70.28-70.28 70.28z" fill="#1AADF9" p-id="5156"></path><path d="M696.28 495.33l-162.6-162.56c-2.83-2.83-6.22-5.06-9.97-6.62a30.636 30.636 0 0 0-23.45 0c-3.75 1.56-7.14 3.79-9.97 6.62L327.74 495.33c-11.99 11.99-11.99 31.4 0 43.39 5.99 5.99 13.82 8.99 21.69 8.99s15.7-3 21.69-8.99L481.3 428.54v298.63c0 16.94 13.74 30.68 30.68 30.68 16.94 0 30.68-13.74 30.68-30.68V428.53l110.22 110.19c11.99 11.99 31.4 11.99 43.39 0 12-11.99 12-31.4 0.01-43.39z" fill="#0C2E97" p-id="5157"></path></svg>