<?xml version="1.0" standalone="no"?><!DOCTYPE svg PUBLIC "-//W3C//DTD SVG 1.1//EN" "http://www.w3.org/Graphics/SVG/1.1/DTD/svg11.dtd"><svg t="1723607423222" class="icon" viewBox="0 0 1024 1024" version="1.1" xmlns="http://www.w3.org/2000/svg" p-id="1891" xmlns:xlink="http://www.w3.org/1999/xlink" width="200" height="200"><path d="M431.090254 700.658749c331.100795 0 200.400986-134.714295 565.80004-134.714295-294.754878 352.951453-350.257167 242.485731-350.257168 242.485731s-546.643667-107.771436-215.542872-107.771436z" fill="#F44336" p-id="1892"></path><path d="M666.974985 787.818898c132.235552-102.760064 95.431607-194.931585 329.83448-221.874444 0 188.600013-188.600013 133.852124-188.600013 431.085744-117.120608 0-215.542872-151.391925-141.234467-209.2113z" fill="#B71C1C" p-id="1893"></path><path d="M723.204732 471.348075C711.242102 523.940536 700.518844 539.028537 666.516956 539.028537a72.449348 72.449348 0 0 1-77.568491-67.869062 74.847262 74.847262 0 0 1 80.828577-66.845233c52.781061 0 65.632805 13.47143 53.42769 67.033833zM138.975776 471.348075C150.88452 523.940536 161.661664 539.028537 195.663552 539.028537a72.449348 72.449348 0 0 0 77.568491-67.869062 74.847262 74.847262 0 0 0-80.828577-66.845233c-52.781061 0-65.632805 13.47143-53.42769 67.033833z" fill="#FB8C00" p-id="1894"></path><path d="M80.375058 865.602932C118.148946 814.061242 323.318818 727.628551 323.318818 727.628551h215.542872s205.169872 86.432692 242.94376 137.974381A361.034311 361.034311 0 0 1 835.23314 1024H26.947368a361.034311 361.034311 0 0 1 53.42769-158.397068z" fill="#2196F3" p-id="1895"></path><path d="M431.090254 700.685692c-134.714295 0-242.485731 53.885718-242.485731 80.828577 0 80.828577 189.165813 107.771436 242.485731 215.542872 54.478461-107.771436 175.93687-148.99401 242.485731-215.542872 19.102487-19.102487-107.771436-80.828577-242.485731-80.828577z" fill="#F44336" p-id="1896"></path><path d="M323.318818 512.085678v242.485732c0 79.72392 107.771436 134.714295 107.771436 134.714295s107.771436-54.18209 107.771436-134.714295v-242.485732z" fill="#FB8C00" p-id="1897"></path><path d="M431.090254 107.942793C275.144986 107.942793 161.661664 206.499771 161.661664 343.585038 161.661664 612.825028 306.641188 727.628551 431.090254 727.628551s269.42859-114.803522 269.42859-384.043513C700.518844 243.061231 587.035522 107.942793 431.090254 107.942793z" fill="#FFB74D" p-id="1898"></path><path d="M391.133994 558.077139A111.812865 111.812865 0 0 0 431.090254 565.701968a111.812865 111.812865 0 0 0 39.95626-7.624829A46.476432 46.476432 0 0 1 431.090254 586.825169a46.476432 46.476432 0 0 1-39.95626-28.74803z" fill="#FCA230" p-id="1899"></path><path d="M363.733106 609.160799a221.17393 221.17393 0 0 0 67.357148 10.777144 221.17393 221.17393 0 0 0 67.357148-10.777144 94.542492 94.542492 0 0 1-67.357148 37.720003 94.542492 94.542492 0 0 1-67.357148-37.720003z" fill="#FB8C00" p-id="1900"></path><path d="M431.090254 0.171357c-108.202522 0-151.391925 107.771436-242.485731 107.771436-57.118861 0-74.577834-58.654604-26.942859-80.828577-61.321947 17.05483-80.828577 53.400747-80.828578 85.301091A144.683153 144.683153 0 0 0 134.718805 215.714229a916.218864 916.218864 0 0 0 42.273345 242.485731S188.604523 317.88155 188.604523 242.657088a519.781637 519.781637 0 0 0 161.657154 26.942859c175.990755 0 215.542872-107.771436 215.542872-107.771436s20.207144 103.271979 107.771436 134.714295c5.388572 116.177608 11.423772 161.657154 11.423773 161.657154A781.908712 781.908712 0 0 0 727.461703 242.657088c0-108.606665-53.050489-188.600013-161.657154-188.600013a176.098527 176.098527 0 0 0-134.714295-53.885718z" fill="#607D8B" p-id="1901"></path><path d="M692.435987 458.19996L538.86169 539.028537s-65.68669-53.885718-107.771436-53.885718v-107.771436a365.964854 365.964854 0 0 1 107.771436-26.942859 718.862422 718.862422 0 0 1 172.218755 26.942859 168.716183 168.716183 0 0 1-18.644458 80.828577z" fill="#F44336" p-id="1902"></path><path d="M692.435987 458.19996L538.86169 539.028537s-65.68669-53.885718-107.771436-53.885718v-107.771436a365.964854 365.964854 0 0 1 107.771436-26.942859 718.862422 718.862422 0 0 1 172.218755 26.942859 168.716183 168.716183 0 0 1-18.644458 80.828577z" fill="#F44336" p-id="1903"></path><path d="M692.435987 458.19996L538.86169 539.028537s-65.68669-53.885718-107.771436-53.885718v-107.771436a365.964854 365.964854 0 0 1 107.771436-26.942859 718.862422 718.862422 0 0 1 172.218755 26.942859 168.716183 168.716183 0 0 1-18.644458 80.828577zM169.960064 458.19996l153.574297 80.828577s65.471147-53.885718 107.555893-53.885718v-107.771436a365.964854 365.964854 0 0 0-107.771436-26.942859 718.862422 718.862422 0 0 0-172.218755 26.942859 168.716183 168.716183 0 0 0 18.860001 80.828577z" fill="#F44336" p-id="1904"></path><path d="M592.747408 458.19996a83.980892 83.980892 0 0 1-53.885718 26.942859 83.980892 83.980892 0 0 1-53.885718-26.942859 83.980892 83.980892 0 0 1 53.885718-26.942859 83.980892 83.980892 0 0 1 53.885718 26.942859z" fill="#FFFFFF" p-id="1905"></path><path d="M538.86169 458.19996m-26.942859 0a26.942859 26.942859 0 1 0 53.885718 0 26.942859 26.942859 0 1 0-53.885718 0Z" fill="#3E2723" p-id="1906"></path><path d="M377.204536 458.19996a83.980892 83.980892 0 0 1-53.885718 26.942859 83.980892 83.980892 0 0 1-53.885718-26.942859 83.980892 83.980892 0 0 1 53.885718-26.942859 83.980892 83.980892 0 0 1 53.885718 26.942859z" fill="#FFFFFF" p-id="1907"></path><path d="M323.318818 458.19996m-26.942859 0a26.942859 26.942859 0 1 0 53.885718 0 26.942859 26.942859 0 1 0-53.885718 0Z" fill="#3E2723" p-id="1908"></path></svg>